<?xml version="1.0" encoding="UTF-8" standalone="no"?>
<!-- Created with Inkscape (http://www.inkscape.org/) -->

<svg
   version="1.1"
   id="svg59"
   width="1341.856"
   height="306.23462"
   viewBox="0 0 1341.856 306.23462"
   sodipodi:docname="Caf_llogo.png"
   xmlns:inkscape="http://www.inkscape.org/namespaces/inkscape"
   xmlns:sodipodi="http://sodipodi.sourceforge.net/DTD/sodipodi-0.dtd"
   xmlns="http://www.w3.org/2000/svg"
   xmlns:svg="http://www.w3.org/2000/svg">
  <defs
     id="defs63" />
  <sodipodi:namedview
     id="namedview61"
     pagecolor="#ffffff"
     bordercolor="#000000"
     borderopacity="0.25"
     inkscape:showpageshadow="2"
     inkscape:pageopacity="0.0"
     inkscape:pagecheckerboard="0"
     inkscape:deskcolor="#d1d1d1"
     showgrid="false" />
  <g
     inkscape:groupmode="layer"
     inkscape:label="Image"
     id="g65"
     style="display:inline"
     transform="translate(-40.95969,-439.42944)">
    <path
       style="opacity:1;fill:#3c2818;fill-opacity:1"
       d="m 130.81549,744.54383 c -11.90428,-1.36623 -26.59708,-4.60636 -38.5,-8.49022 -28.141119,-9.18229 -42.267059,-20.31994 -48.689659,-38.38955 l -2.31034,-6.5 -0.28894,-93 c -0.20167,-64.90703 0.0472,-95.00959 0.82392,-99.65261 3.60929,-21.57586 22.63525,-38.35884 51.978669,-45.85088 24.75319,-6.32005 46.74456,-7.16482 176.98636,-6.79871 l 107.5,0.30219 0.26421,31.22219 0.26421,31.22219 -99.76421,0.27781 -99.76421,0.27781 -5.30908,2.17638 c -7.10606,2.91301 -12.10314,6.86929 -13.79703,10.92333 -1.14689,2.74491 -1.39389,15.76327 -1.39389,73.46705 v 70.13099 l 1.57418,3.31733 c 1.84011,3.87776 7.08933,7.61137 14.00874,9.964 l 4.91708,1.67183 101.25,-0.11066 101.25,-0.11066 v 32.53521 32.53521 l -121.75,-0.12974 c -66.9625,-0.0713 -125.125,-0.51707 -129.25001,-0.99049 z m 349.10103,-1.12977 c 19.43233,-37.32574 143.5252,-266.1659 146.80969,-270.73237 11.47551,-15.95451 34.02109,-27.88594 60.58932,-32.06466 11.0999,-1.74583 34.9161,-1.53318 46.656,0.41657 24.6701,4.0972 45.8249,14.67124 55.6618,27.82211 2.7938,3.73503 130.40576,237.20862 150.06806,274.55835 l 1.1845,2.25 h -60.3741 -60.37406 l -15.5413,-32.25 -15.5412,-32.25 -78.3814,-0.256 -78.3814,-0.256 -17.35102,32.506 -17.35103,32.506 H 538.16776 478.74513 Z M 755.35223,613.77967 c -1.4246,-4.48865 -45.3168,-93.27004 -46.1309,-93.30989 -1.1084,-0.0542 -46.38628,93.88049 -45.62077,94.64601 0.30155,0.30155 21.20357,0.54827 46.44897,0.54827 h 45.9008 z m 290.68337,8.13439 0.28,-123.75001 2.2352,-6.57213 c 7.9816,-23.46755 29.0211,-37.73429 63.2648,-42.89931 15.7423,-2.37443 47.0922,-2.97254 157.25,-3.0001 l 113.75,-0.0285 v 31.47677 31.47677 l -100.25,0.27323 -100.25,0.27323 -5.5456,2.60112 c -7.4979,3.51679 -12.6816,8.25626 -13.9245,12.73115 -0.5603,2.01725 -1.0213,10.75523 -1.0243,19.41774 l -0.01,15.75 h 110 110 v 33 33 h -110.5 -110.5 v 60 60 h -57.53 -57.5299 z"
       id="path409" />
  </g>
</svg>
