<svg width="120" height="120" viewBox="0 0 120 120" fill="none" xmlns="http://www.w3.org/2000/svg">
<g clip-path="url(#clip0_1802_42018)">
<path fill-rule="evenodd" clip-rule="evenodd" d="M120 59.9988C120 93.0806 93.0806 120 60.0012 120C26.9194 120 0 93.0806 0 59.9988C0 26.9171 26.9194 0 60.0012 0C93.0806 0 120 26.9171 120 59.9988ZM60.0012 6.64662C30.6489 6.64662 6.64895 30.6466 6.64895 59.9988C6.64895 89.3511 30.6489 113.351 60.0012 113.351C89.351 113.351 113.351 89.3511 113.351 59.9988C113.351 30.6466 89.351 6.64662 60.0012 6.64662Z" fill="white"/>
<path fill-rule="evenodd" clip-rule="evenodd" d="M36.4062 46.9314V54.0809H30.8119V31.7012H45.0457C48.1955 31.7012 50.5888 32.3647 52.2254 33.6917C53.8621 35.0164 54.6815 36.8812 54.6815 39.2861V39.4723C54.6815 41.1718 54.2834 42.6268 53.4849 43.8398C52.8563 44.7943 51.8809 45.5602 50.5632 46.1376L55.7082 54.0809H48.9615L44.7966 46.9314H36.4062ZM44.8897 36.4877H36.4062V42.1449H44.5801C46.1352 42.1449 47.2736 41.9261 48 41.4931C48.724 41.0577 49.0872 40.364 49.0872 39.4095V39.2232C49.0872 38.2501 48.7613 37.5493 48.1071 37.1256C47.4552 36.6996 46.382 36.4877 44.8897 36.4877Z" fill="white"/>
<path d="M67.7839 54.0809V31.7012H90.9085V36.4877H73.6902V40.7155H89.23V45.3158H73.6902V54.0809H67.7839Z" fill="white"/>
<path d="M67.7839 88.2965V65.9191H90.9085V70.7056H73.6902V74.9311H89.23V79.5313H73.6902V88.2965H67.7839Z" fill="white"/>
<path d="M30.8119 65.9191H54.8677V70.7056H36.7158V74.5586H52.5676V79.1588H36.7158V83.51H55.054V88.2965H30.8119V65.9191Z" fill="white"/>
</g>
<defs>
<clipPath id="clip0_1802_42018">
<rect width="120" height="120" fill="white"/>
</clipPath>
</defs>
</svg>
