<?xml version="1.0" encoding="UTF-8"?><svg id="uuid-fabe7fc8-2a00-4ad0-ad80-b46520dd95dc" xmlns="http://www.w3.org/2000/svg" viewBox="0 0 1000 1000"><path d="M833.1597,807.6797l34.1454,31.563c-53.019,57.3793-119.313,102.3091-194.0102,129.9069l-16.0973-43.6351c67.7475-25.0366,127.8784-65.7895,175.9621-117.8348ZM499.9998,953.5004c-42.6226,0-83.8765-5.8808-122.9854-16.8769l-12.6259,44.764c43.1236,12.1285,88.6107,18.6126,135.6113,18.6126,47.1205,0,92.7206-6.5193,135.9465-18.7043l-12.6259-44.7675c-39.2077,11.0596-80.5745,16.9721-123.3206,16.9721ZM167.041,807.8984l-34.1454,31.563c53.0613,57.3581,119.3977,102.2562,194.1301,129.8081l16.1008-43.6351c-67.7863-24.9908-127.9561-65.7119-176.0855-117.736ZM892.8056,809.3942c67.1333-85.1154,107.1944-192.5764,107.1944-309.3942C1000,223.8579,776.1423,0,499.9998,0S0,223.8579,0,500c0,116.919,40.1306,224.4651,107.369,309.615l36.5146-28.7941c-60.9854-77.2312-97.3836-174.7753-97.3836-280.821,0-250.4609,203.0388-453.4997,453.4998-453.4997s453.5002,203.0388,453.5002,453.4997c0,105.9459-36.3298,203.406-97.2115,280.6026l36.5171,28.7916ZM813.4058,554.2354v70.5814l-300.8057,173.6703v-70.5728l239.6954-138.3882-93.9631-54.2496-206.85,119.425-.0005,179.0723-61.1173-35.286v-108.4999l-93.9637,54.2499-61.14-35.2992v-417.8976l61.1395-35.299,93.9642,54.2502v-108.5005l61.1175-35.2862,122.2361,70.5731v70.5728l-122.2359-70.5728v108.5l122.2359,70.5728v70.5728l-122.2359-70.5728v168.2772l300.8139-173.675-117.4603-67.8157v-70.5728l178.5698,103.0974v70.5823l-93.9554,54.2453,93.9554,54.2453ZM390.3645,380.5652l-93.9859-54.2627v347.3754l93.9859-54.2627v-238.85Z" style="fill:#004941;"/></svg>