<svg width="120" height="120" viewBox="0 0 120 120" fill="none" xmlns="http://www.w3.org/2000/svg">
<path d="M20.4722 70.1651C17.635 70.1651 14.914 71.2922 12.9078 73.2984C10.9016 75.3046 9.77454 78.0256 9.77454 80.8628C9.77454 83.7 10.9016 86.421 12.9078 88.4272C14.914 90.4334 17.635 91.5604 20.4722 91.5604H26.9838V88.9686H20.4722C18.3523 88.9242 16.3341 88.0509 14.8505 86.5359C13.3669 85.021 12.536 82.985 12.536 80.8645C12.536 78.7441 13.3669 76.7081 14.8505 75.1932C16.3341 73.6782 18.3523 72.8049 20.4722 72.7605H23.5825V70.1651H20.4722Z" fill="white"/>
<path d="M61.0332 39.2579H29.4976V41.8534H36.0021C38.151 41.8534 40.2118 42.707 41.7313 44.2265C43.2507 45.7459 44.1044 47.8068 44.1044 49.9556C44.1044 52.1045 43.2507 54.1653 41.7313 55.6848C40.2118 57.2042 38.151 58.0579 36.0021 58.0579H33.3996V60.6533H36.0021C38.0126 60.6536 39.9821 60.0849 41.6829 59.0129V67.6087H44.2783V56.7264C46.0545 54.5718 46.9135 51.8059 46.6705 49.0241C46.4274 46.2424 45.1017 43.6673 42.9789 41.8534H61.0332V39.2579Z" fill="white"/>
<path d="M49.7071 56.698V67.6087H52.3025V59.2934H56.5986V56.698H49.7071Z" fill="white"/>
<path d="M59.9894 48.6597H49.8562V51.2551H59.9894V48.6597Z" fill="white"/>
<path d="M51.3119 79.5384H41.9918V82.1338H51.3119V79.5384Z" fill="white"/>
<path fill-rule="evenodd" clip-rule="evenodd" d="M79.3716 68.7378C79.1408 69.0751 78.9065 69.4159 78.6615 69.7568C75.8285 73.7783 72.6913 77.5766 69.2775 81.1184C68.8692 81.5445 68.4715 81.9989 68.0703 82.4605C70.0887 78.6529 71.4113 74.5156 71.9759 70.2432H62.3185C61.6192 73.8836 60.1217 77.3237 57.9336 80.316V70.2077H55.3382V87.1046L57.5644 84.8074C60.8152 81.4512 63.1629 77.3262 64.3884 72.8173H68.8798C67.795 77.6847 65.6473 82.252 62.5905 86.1921C59.5337 90.1322 55.6434 93.3476 51.1983 95.608L50.9711 95.7216V98.6046C51.1699 98.5052 51.1841 98.4946 51.1983 98.491C52.463 97.9052 53.6923 97.246 54.8802 96.5169L55.1216 96.3714H55.1394C55.6885 96.0258 56.2282 95.6707 56.7584 95.3062C67.1791 88.2549 75.5299 78.8567 80.8379 71.2018C81.1906 70.6977 81.5326 70.1959 81.864 69.6964L79.3716 68.7378Z" fill="white"/>
<path fill-rule="evenodd" clip-rule="evenodd" d="M27.4099 32.6966C30.2107 31.9512 33.0967 31.574 35.995 31.5746V28.9792C32.93 28.9807 29.8778 29.3745 26.9128 30.1509C26.7921 30.1828 26.6714 30.2254 26.5578 30.261C12.6647 34.0245 1.90662 45.9187 0 60.5787H9.58636C10.1325 58.2283 11.0265 55.9725 12.2386 53.886H15.079V51.2906H10.7651C9.42763 53.3804 8.36104 55.6317 7.59098 57.9904H3.08539C4.14967 53.2725 6.21175 48.8372 9.13298 44.9827C12.0542 41.1281 15.7669 37.9437 20.0213 35.6435C19.0984 37.433 18.6994 39.4466 18.8703 41.4528C19.0411 43.459 19.7748 45.3762 20.987 46.9838V57.9904H14.5571V60.5858H23.5825V49.4408C25.3409 50.621 27.4118 51.249 29.5296 51.2444H35.995V48.6526H29.5296C27.5517 48.6659 25.6369 47.9571 24.1443 46.6592C22.6518 45.3613 21.684 43.5634 21.4226 41.6028C21.1612 39.6422 21.6241 37.6536 22.7244 36.01C23.8248 34.3664 25.487 33.1807 27.3993 32.6753L27.4099 32.6966Z" fill="white"/>
<path d="M41.9918 88.5248V100.983H44.5872V91.1166H48.6881V88.5248H41.9918Z" fill="white"/>
<path d="M52.2847 72.7996V70.2041H33.3996V81.6403C31.5625 80.2905 29.3417 79.5639 27.062 79.5668H20.948V82.1623H27.062C29.2108 82.1623 31.2716 83.0159 32.7911 84.5353C34.3106 86.0548 35.1642 88.1157 35.1642 90.2645C35.1642 92.4134 34.3106 94.4742 32.7911 95.9937C31.2716 97.5131 29.2108 98.3668 27.062 98.3668V100.952C28.9968 100.955 30.8963 100.433 32.5581 99.4426C34.2198 98.4516 35.5817 97.0284 36.4985 95.3246C37.4152 93.6208 37.8526 91.7002 37.7639 89.7674C37.6753 87.8346 37.0639 85.9621 35.995 84.3494V72.7996H52.2847Z" fill="white"/>
<path fill-rule="evenodd" clip-rule="evenodd" d="M73.4209 60.9728L73.3996 60.9551C73.3851 60.9432 73.3697 60.9325 73.3534 60.9231L73.4209 60.9728ZM119.979 82.354C119.979 82.2865 119.979 82.2191 119.961 82.1516C119.752 79.9842 118.705 77.984 117.043 76.5769C115.381 75.1698 113.236 74.4667 111.063 74.6174C109.152 74.7468 107.345 75.5362 105.951 76.8507L107.903 78.5904C108.837 77.7772 110.01 77.291 111.244 77.2057C112.765 77.0993 114.265 77.6002 115.417 78.5986C116.568 79.597 117.277 81.0114 117.387 82.5315C117.461 83.5664 117.254 84.6022 116.787 85.5288C116.32 86.4555 115.611 87.2384 114.735 87.7944C113.859 88.3504 112.849 88.6587 111.812 88.6867C110.774 88.7146 109.749 88.4611 108.844 87.9531H108.819C108.634 87.8461 108.454 87.7275 108.283 87.5981C107.64 87.105 107.024 86.5776 106.437 86.0181C100.774 72.8067 94.9334 62.741 89.178 56.2826C90.9156 52.7739 92.4369 49.1623 93.7333 45.4678L91.3794 44.3174C90.1923 47.7062 88.8149 51.0253 87.2537 54.2588C84.6938 51.7344 82.1516 49.9379 79.6591 48.9331L78.6792 51.3155C83.9197 53.4458 92.125 60.5823 101.956 81.9315C100.98 80.5965 99.9574 78.9561 98.9419 77.7738C96.1015 74.4861 92.9061 70.7651 89.4621 67.3034C86.785 64.6085 83.8345 63.2203 80.9799 61.8747C78.8496 60.8663 76.8223 59.9148 74.9441 58.4555L74.9086 58.4271L74.8766 58.4058C74.0565 57.8489 73.3861 57.0986 72.9248 56.2211C72.4634 55.3437 72.2253 54.3661 72.2315 53.3747C72.2315 51.667 73.1014 50.1154 74.0067 48.475L75.2068 46.3199C76.6838 43.6677 77.291 42.5635 77.5182 41.9599C77.9127 40.948 78.1022 39.8679 78.0756 38.7822C77.9584 34.0671 74.5251 30.7829 69.7142 30.7971H55.7749C60.1562 28.578 66.6572 26.4974 73.4884 26.7921C77.4898 26.9661 79.4106 27.8573 80.9444 28.6029C82.0096 29.0964 82.9824 29.5615 84.2357 29.5615C86.9874 29.5615 87.8537 27.6158 88.3188 26.5684L88.4679 26.2382L88.4928 26.1921C88.6483 25.8457 88.8349 25.5142 89.0502 25.2015C89.9655 23.8799 91.3683 22.976 92.95 22.6887C94.5318 22.4014 96.1628 22.7542 97.4845 23.6694C98.8061 24.5847 99.7099 25.9875 99.9973 27.5693C100.285 29.151 99.9318 30.7821 99.0165 32.1037C97.9939 33.5949 96.5737 34.5571 95.0932 34.7878C94.5208 34.8754 93.9365 34.8417 93.378 34.6888C92.8195 34.5358 92.2995 34.2672 91.8516 33.9002C91.4888 33.61 91.198 33.2397 91.0022 32.8184C90.8063 32.3971 90.7106 31.9361 90.7225 31.4717C90.7466 30.8995 90.9448 30.3482 91.2906 29.8917L89.1248 28.4715C88.52 29.3183 88.1735 30.3221 88.1271 31.3616C88.0986 32.2337 88.2749 33.1003 88.6418 33.892C89.0086 34.6837 89.5559 35.3784 90.2396 35.9205C90.9663 36.5064 91.8066 36.9351 92.7074 37.1796C93.6082 37.424 94.55 37.4789 95.4731 37.3407C95.9405 37.2677 96.3996 37.1488 96.8436 36.9856C99.613 39.5526 103.458 44.4949 104.917 47.3957C105.385 48.2507 105.517 49.2489 105.289 50.1962C105.062 51.1435 104.49 51.9724 103.685 52.5217C102.881 53.071 101.9 53.3015 100.935 53.1685C99.97 53.0355 99.0887 52.5484 98.4626 51.8019L96.3927 53.3889C97.4184 54.635 98.8693 55.4571 100.465 55.6964C102.062 55.9358 103.69 55.5755 105.036 54.6852C106.382 53.7948 107.351 52.4374 107.755 50.8749C108.159 49.3124 107.971 47.6556 107.225 46.224C105.624 43.0286 101.928 38.3703 99.2118 35.6826C99.9614 35.0846 100.619 34.3801 101.165 33.5913C101.844 32.6005 102.311 31.4791 102.533 30.2983C102.756 29.1175 102.731 27.9033 102.458 26.7329C102.186 25.5625 101.673 24.4616 100.952 23.5003C100.231 22.539 99.3182 21.7383 98.2709 21.1492C97.2236 20.5601 96.0651 20.1955 94.8692 20.0786C93.6733 19.9617 92.4661 20.0951 91.3246 20.4703C90.183 20.8455 89.1321 21.4542 88.2387 22.2577C87.3452 23.0613 86.6289 24.042 86.1353 25.1376C86.1353 25.1376 85.9577 25.5246 85.9577 25.5246C85.4962 26.5542 85.2725 26.9732 84.2464 26.9732C83.5753 26.9732 82.9753 26.6891 82.0628 26.2631C80.4012 25.4784 78.1253 24.4026 73.5984 24.2073C64.1257 23.7955 55.1749 27.6726 50.9924 30.6302V33.3996H69.7284C73.0943 33.3996 75.4092 35.5796 75.4908 38.8532V38.9987C75.4913 39.6964 75.36 40.3878 75.1038 41.0367C74.9299 41.5054 74.099 43.0002 72.9487 45.063L71.7522 47.2146C70.7119 49.0751 69.6219 50.9959 69.6219 53.3747V53.3996C69.6216 54.805 69.9643 56.1893 70.6201 57.4323C71.2759 58.6752 72.2252 59.7395 73.3854 60.5326C75.4731 62.1516 77.7028 63.2061 79.858 64.2215C82.6309 65.5281 85.2512 66.7637 87.6087 69.1319C90.9852 72.5262 94.0209 76.0554 96.9572 79.4674C100.554 83.6428 103.678 87.3886 106.693 89.6609C107.975 90.6077 109.502 91.167 111.093 91.2726C112.684 91.3783 114.272 91.0257 115.668 90.2569C117.065 89.488 118.212 88.3349 118.973 86.9343C119.735 85.5336 120.079 83.9441 119.964 82.354H119.979Z" fill="white"/>
<path d="M0 64.676H2.38239V65.1234H1.44861V67.6087H0.930233V65.1234H0V64.676Z" fill="white"/>
<path d="M2.96469 64.676H3.67479L4.48785 66.9803L5.27607 64.676H5.98617V67.6194H5.52815V65.3506L4.71154 67.6194H4.28547L3.47241 65.3506V67.6194H2.96469V64.676Z" fill="white"/>
</svg>
